<svg xmlns="http://www.w3.org/2000/svg" viewBox="0 0 128 128" width="128" height="128">
  <!-- Queen piece (gold), transform applied: translate(24,4) scale(0.8) -->
  <path d="M 40 72 L 88 72 L 92 80 L 36 80 Z" fill="#DDAA44" fill-opacity="0.2" stroke="#DDAA44" stroke-width="2" stroke-linejoin="round" stroke-linecap="round"/>
  <path d="M 48 64 L 80 64 L 88 72 L 40 72 Z" fill="#DDAA44" fill-opacity="0.2" stroke="#DDAA44" stroke-width="2" stroke-linejoin="round" stroke-linecap="round"/>
  <path d="M 52 64 L 76 64 C 76 64 72 44 68 40 L 60 40 C 56 44 52 64 52 64 Z" fill="#DDAA44" fill-opacity="0.2" stroke="#DDAA44" stroke-width="2" stroke-linejoin="round" stroke-linecap="round"/>
  <path d="M 60 40 L 68 40 L 84 20 L 72 32 L 64 16 L 56 32 L 44 20 Z" fill="#DDAA44" fill-opacity="0.2" stroke="#DDAA44" stroke-width="2" stroke-linejoin="round" stroke-linecap="round"/>
  <circle cx="44" cy="17.6" r="2.4" fill="#DDAA44"/>
  <circle cx="64" cy="13.6" r="2.4" fill="#DDAA44"/>
  <circle cx="84" cy="17.6" r="2.4" fill="#DDAA44"/>
  <!-- 5 stars -->
  <polygon points="16,108 19,114 26,114 21,118 23,125 16,121 9,125 11,118 6,114 13,114" fill="#DDAA44"/>
  <polygon points="40,108 43,114 50,114 45,118 47,125 40,121 33,125 35,118 30,114 37,114" fill="#DDAA44"/>
  <polygon points="64,108 67,114 74,114 69,118 71,125 64,121 57,125 59,118 54,114 61,114" fill="#DDAA44"/>
  <polygon points="88,108 91,114 98,114 93,118 95,125 88,121 81,125 83,118 78,114 85,114" fill="#DDAA44"/>
  <polygon points="112,108 115,114 122,114 117,118 119,125 112,121 105,125 107,118 102,114 109,114" fill="#DDAA44"/>
</svg>
