<svg xmlns="http://www.w3.org/2000/svg" viewBox="0 0 128 128" width="128" height="128">
  <!-- Bishop piece (gold), transform applied: translate(24,4) scale(0.8) -->
  <path d="M 40 72 L 88 72 L 92 80 L 36 80 Z" fill="#DDAA44" fill-opacity="0.2" stroke="#DDAA44" stroke-width="2" stroke-linejoin="round" stroke-linecap="round"/>
  <path d="M 48 64 L 80 64 L 88 72 L 40 72 Z" fill="#DDAA44" fill-opacity="0.2" stroke="#DDAA44" stroke-width="2" stroke-linejoin="round" stroke-linecap="round"/>
  <path d="M 56 64 L 72 64 C 72 64 76 48 68 40 L 60 40 C 52 48 56 64 56 64 Z" fill="#DDAA44" fill-opacity="0.2" stroke="#DDAA44" stroke-width="2" stroke-linejoin="round" stroke-linecap="round"/>
  <path d="M 60 40 L 68 40 C 76 32 68 16 64 16 C 60 16 52 32 60 40 Z" fill="#DDAA44" fill-opacity="0.2" stroke="#DDAA44" stroke-width="2" stroke-linejoin="round" stroke-linecap="round"/>
  <path d="M 64 20 L 64 32 M 60 24 L 68 24" fill="none" stroke="#DDAA44" stroke-width="2" stroke-linejoin="round" stroke-linecap="round"/>
  <circle cx="64" cy="13.6" r="2.4" fill="#DDAA44"/>
  <!-- 3 stars -->
  <polygon points="40,108 43,114 50,114 45,118 47,125 40,121 33,125 35,118 30,114 37,114" fill="#DDAA44"/>
  <polygon points="64,108 67,114 74,114 69,118 71,125 64,121 57,125 59,118 54,114 61,114" fill="#DDAA44"/>
  <polygon points="88,108 91,114 98,114 93,118 95,125 88,121 81,125 83,118 78,114 85,114" fill="#DDAA44"/>
</svg>
