<svg xmlns="http://www.w3.org/2000/svg" viewBox="0 0 128 128" width="128" height="128">
  <!-- Knight piece (gold), transform applied: translate(24,4) scale(0.8) -->
  <path d="M 40 72 L 88 72 L 92 80 L 36 80 Z" fill="#DDAA44" fill-opacity="0.2" stroke="#DDAA44" stroke-width="2" stroke-linejoin="round" stroke-linecap="round"/>
  <path d="M 48 64 L 80 64 L 88 72 L 40 72 Z" fill="#DDAA44" fill-opacity="0.2" stroke="#DDAA44" stroke-width="2" stroke-linejoin="round" stroke-linecap="round"/>
  <path d="M 48 64 L 80 64 C 80 52 84 36 76 24 L 68 16 L 64 24 L 44 36 C 40 40 44 44 48 44 L 60 40 C 56 48 52 56 48 64 Z" fill="#DDAA44" fill-opacity="0.2" stroke="#DDAA44" stroke-width="2" stroke-linejoin="round" stroke-linecap="round"/>
  <circle cx="65.6" cy="28" r="2" fill="#DDAA44"/>
  <path d="M 76.8 32 L 70.4 36 M 78.4 40 L 72 44 M 79.2 48 L 73.6 52" fill="none" stroke="#DDAA44" stroke-width="2" stroke-linejoin="round" stroke-linecap="round"/>
  <!-- 2 stars -->
  <polygon points="52,108 55,114 62,114 57,118 59,125 52,121 45,125 47,118 42,114 49,114" fill="#DDAA44"/>
  <polygon points="76,108 79,114 86,114 81,118 83,125 76,121 69,125 71,118 66,114 73,114" fill="#DDAA44"/>
</svg>
