<svg xmlns="http://www.w3.org/2000/svg" viewBox="0 0 128 128" width="128" height="128">
  <!-- Board background -->
  <rect width="128" height="128" rx="16" fill="#E0B680"/>
  <rect x="3" y="3" width="122" height="122" rx="14" fill="none" stroke="#A37644" stroke-width="2"/>
  <!-- Left store (rounded rectangle) -->
  <rect x="8" y="30" width="18" height="68" rx="9" fill="#996A32" stroke="#7D5220" stroke-width="1.5"/>
  <rect x="10" y="33" width="14" height="62" rx="7" fill="#C49459"/>
  <!-- Right store (rounded rectangle) -->
  <rect x="102" y="30" width="18" height="68" rx="9" fill="#996A32" stroke="#7D5220" stroke-width="1.5"/>
  <rect x="104" y="33" width="14" height="62" rx="7" fill="#C49459"/>
  <!-- Top row pits (rounded rectangles) - evenly spaced -->
  <rect x="33" y="32" width="16" height="16" rx="5" fill="#996A32" stroke="#7D5220" stroke-width="1"/>
  <rect x="35" y="34" width="12" height="12" rx="4" fill="#C49459"/>
  <rect x="56" y="32" width="16" height="16" rx="5" fill="#996A32" stroke="#7D5220" stroke-width="1"/>
  <rect x="58" y="34" width="12" height="12" rx="4" fill="#C49459"/>
  <rect x="79" y="32" width="16" height="16" rx="5" fill="#996A32" stroke="#7D5220" stroke-width="1"/>
  <rect x="81" y="34" width="12" height="12" rx="4" fill="#C49459"/>
  <!-- Bottom row pits (rounded rectangles) -->
  <rect x="33" y="80" width="16" height="16" rx="5" fill="#996A32" stroke="#7D5220" stroke-width="1"/>
  <rect x="35" y="82" width="12" height="12" rx="4" fill="#C49459"/>
  <rect x="56" y="80" width="16" height="16" rx="5" fill="#996A32" stroke="#7D5220" stroke-width="1"/>
  <rect x="58" y="82" width="12" height="12" rx="4" fill="#C49459"/>
  <rect x="79" y="80" width="16" height="16" rx="5" fill="#996A32" stroke="#7D5220" stroke-width="1"/>
  <rect x="81" y="82" width="12" height="12" rx="4" fill="#C49459"/>
  <!-- Colorful marbles in pits -->
  <!-- Top row marbles -->
  <circle cx="39" cy="38" r="3" fill="#FF0000"/>
  <circle cx="44" cy="39" r="3" fill="#00FF00"/>
  <circle cx="41" cy="43" r="3" fill="#3366FF"/>
  <circle cx="62" cy="38" r="3" fill="#FFAA00"/>
  <circle cx="67" cy="39" r="3" fill="#FF00FF"/>
  <circle cx="64" cy="43" r="3" fill="#00FFFF"/>
  <circle cx="63" cy="42" r="3" fill="#FFD700"/>
  <circle cx="85" cy="38" r="3" fill="#8A2BE2"/>
  <circle cx="90" cy="39" r="3" fill="#FF6347"/>
  <!-- Bottom row marbles -->
  <circle cx="39" cy="86" r="3" fill="#32CD32"/>
  <circle cx="44" cy="87" r="3" fill="#FF69B4"/>
  <circle cx="41" cy="91" r="3" fill="#4169E1"/>
  <circle cx="40" cy="89" r="3" fill="#FFD700"/>
  <circle cx="62" cy="86" r="3" fill="#FF2400"/>
  <circle cx="67" cy="87" r="3" fill="#40E0D0"/>
  <circle cx="64" cy="91" r="3" fill="#800080"/>
  <circle cx="85" cy="86" r="3" fill="#FF7F50"/>
  <circle cx="90" cy="88" r="3" fill="#00FF00"/>
  <circle cx="87" cy="91" r="3" fill="#0000FF"/>
  <!-- Store marbles -->
  <circle cx="15" cy="56" r="3" fill="#FF0000"/>
  <circle cx="19" cy="60" r="3" fill="#FFFF00"/>
  <circle cx="16" cy="68" r="3" fill="#00FFFF"/>
  <circle cx="109" cy="58" r="3" fill="#FF69B4"/>
  <circle cx="113" cy="64" r="3" fill="#32CD32"/>
</svg>
