<svg width="461" height="64" xmlns="http://www.w3.org/2000/svg"><g fill="none" fill-rule="evenodd"><path d="M299.088 38.34c0 5.454-4.305 9.984-11.978 9.984-7.065 0-12.586-3.467-12.82-10.03h8.515c.234 2.495 1.825 3.697 4.07 3.697 2.34 0 3.838-1.155 3.838-3.05 0-6.01-16.423-2.774-16.33-14.283 0-6.148 5.1-9.568 11.978-9.568 7.159 0 11.978 3.513 12.305 9.706h-8.655c-.14-2.08-1.638-3.328-3.79-3.374-1.918-.046-3.369.925-3.369 2.958 0 5.64 16.236 3.097 16.236 13.96zM304 48V13.796h8.001v11.879c1.59-2.219 4.445-3.744 8.047-3.744 5.943 0 9.92 4.067 9.92 11V48h-7.954V33.995c0-3.513-1.966-5.455-5.007-5.455-3.041 0-5.006 1.942-5.006 5.455V48h-8zm57.081-12.896c0 8.181-5.988 13.266-13.662 13.266-7.673 0-13.475-5.085-13.475-13.266 0-8.181 5.942-13.266 13.569-13.266 7.673 0 13.568 5.085 13.568 13.266zm-18.995 0c0 4.345 2.432 6.425 5.333 6.425 2.854 0 5.521-2.08 5.521-6.425 0-4.391-2.62-6.425-5.427-6.425-2.9 0-5.427 2.034-5.427 6.425zm48.8 0c0 8.181-5.99 13.266-13.663 13.266s-13.475-5.085-13.475-13.266c0-8.181 5.942-13.266 13.569-13.266 7.673 0 13.568 5.085 13.568 13.266zm-18.997 0c0 4.345 2.433 6.425 5.334 6.425 2.854 0 5.521-2.08 5.521-6.425 0-4.391-2.62-6.425-5.427-6.425-2.901 0-5.428 2.034-5.428 6.425zm24.517 3.929V28.772h-3.181v-6.564h3.181v-6.286h8v6.286h5.241v6.564h-5.24v10.353c0 1.526.655 2.173 2.433 2.173h2.854V48h-4.07c-5.428 0-9.218-2.265-9.218-8.967zM425.65 28.17c-2.62 0-4.632 1.571-5.1 4.437h10.012c0-2.82-2.246-4.437-4.912-4.437zm12.492 11.278c-1.263 5.038-5.895 8.92-12.399 8.92-7.673 0-13.194-5.084-13.194-13.265 0-8.181 5.427-13.266 13.194-13.266 7.627 0 13.007 4.992 13.007 12.85 0 .74-.047 1.525-.14 2.311h-18.107c.28 3.374 2.386 4.946 4.96 4.946 2.245 0 3.509-1.11 4.164-2.496h8.515zm12.82-3.42V48h-8V22.208h8v4.299c1.825-2.727 4.679-4.576 8.188-4.576v8.366h-2.2c-3.79 0-5.988 1.294-5.988 5.731z" fill="#0081FF"/><path d="M121 53.2c0 2.64-2.178 4.8-4.84 4.8H4.84C2.178 58 0 55.84 0 53.2V14.8C0 12.16 2.178 10 4.84 10h111.32c2.662 0 4.84 2.16 4.84 4.8v38.4z" fill="#E6E6E6"/><path d="M116 10h-5c2.75 0 5 2.16 5 4.8v38.4c0 2.64-2.25 4.8-5 4.8h5c2.75 0 5-2.16 5-4.8V14.8c0-2.64-2.25-4.8-5-4.8z" fill="#CCC"/><path fill="#406A80" d="M0 33H121V38H0z"/><g transform="translate(12 58)" fill="#242424"><path d="M12.125 0v3.75c0 .688-.546 1.25-1.213 1.25h-9.7C.547 5 0 4.437 0 3.75V0h12.125zM97 0v3.75C97 4.438 96.454 5 95.787 5h-9.7c-.666 0-1.212-.563-1.212-1.25V0H97z"/></g><circle fill="#F5F5F5" cx="81" cy="24" r="24"/><path d="M81.5 44C70.748 44 62 35.252 62 24.5S70.748 5 81.5 5 101 13.748 101 24.5 92.252 44 81.5 44z" fill="#263740"/><path d="M81.5 34c-5.238 0-9.5-4.262-9.5-9.5s4.262-9.5 9.5-9.5 9.5 4.262 9.5 9.5-4.262 9.5-9.5 9.5z" fill="#242424"/><g transform="translate(7 10)" fill="#242424"><path d="M0 14.571C0 15.912 1.075 17 2.4 17s2.4-1.088 2.4-2.429V0H0v14.571zm9.6 0C9.6 15.912 10.675 17 12 17s2.4-1.088 2.4-2.429V0H9.6v14.571zM19.2 0v14.571c0 1.341 1.075 2.429 2.4 2.429s2.4-1.088 2.4-2.429V0h-4.8z"/></g><path d="M178 37.086c0 5.416-4.166 9.914-11.592 9.914-6.838 0-12.182-3.442-12.408-9.96h8.242c.226 2.479 1.766 3.672 3.94 3.672 2.263 0 3.712-1.147 3.712-3.03 0-5.966-15.894-2.753-15.803-14.181 0-6.105 4.935-9.501 11.592-9.501 6.928 0 11.592 3.488 11.91 9.638h-8.378c-.136-2.065-1.585-3.304-3.668-3.35-1.856-.046-3.26.918-3.26 2.937 0 5.6 15.713 3.075 15.713 13.861zM200.342 47V33.032c0-3.504-1.892-5.44-4.82-5.44-2.927 0-4.82 1.936-4.82 5.44V47H183V21.277h7.703v3.41c1.531-2.166 4.234-3.687 7.612-3.687 5.811 0 9.685 4.057 9.685 10.972V47h-7.658zM212 33.955C212 25.983 216.997 21 223.277 21c3.804 0 6.51 1.721 7.884 3.94v-3.578H239v25.276h-7.839v-3.579c-1.42 2.22-4.125 3.941-7.93 3.941C216.997 47 212 41.927 212 33.955zm19-.455c0-4.192-2.57-6.5-5.5-6.5-2.885 0-5.5 2.26-5.5 6.453 0 4.192 2.615 6.547 5.5 6.547 2.93 0 5.5-2.308 5.5-6.5zm21.839-8.526c1.42-2.238 4.125-3.974 7.884-3.974C267.003 21 272 26.024 272 34.063c0 8.038-4.997 13.153-11.277 13.153-3.759 0-6.463-1.78-7.884-3.928V59H245V21.365h7.839v3.609zM264 33.453c0-4.192-2.604-6.453-5.522-6.453-2.874 0-5.478 2.308-5.478 6.5s2.604 6.5 5.478 6.5c2.918 0 5.522-2.355 5.522-6.547z" fill="#373D3F"/></g></svg>